# xmcd CD database file
#
# Track frame offsets:
#	150
#	33128
#	49250
#	65587
#	88370
#	105038
#	117960
#	139486
#	167397
#	189765
#	203984
#	220571
#
# Disc length: 3200 seconds
#
# Revision: 0
# Processed by: cddbd v1.5.2PL0 Copyright (c) Steve Scherf et al.
# Submitted via: CDex 1.51
#
DISCID=9f0c7e0c
DTITLE=VA - NTR: Jazzism Jazzdag - CD1
DYEAR=2015
DGENRE=Jazz
TTITLE0=Tom Beek Trio - Dunk
TTITLE1=The Very Next - Anna Mae
TTITLE2=Vocalicious - Moody's Mood For Love
TTITLE3=Amsterdam Jazz Orchestra - Insinuations
TTITLE4=Ntjam Rosie - Again and Again
TTITLE5=Red Limo String Quartet - Cristal
TTITLE6=Diederik Rijpstra - Wampum
TTITLE7=Felix Schlarmann Group - Uptown Train (Live)
TTITLE8=The More Socially Relevant Jazz Music Ensemble - Eyjafjallajökull
TTITLE9=Ape Not Mice - Spotty Nose (Live)
TTITLE10=Tuur Moens Syndicate - Clockwise
TTITLE11=Prisor Jazz Band -  It's Okay, Isn't It
EXTD=YEAR: 2015
EXTT0=
EXTT1=
EXTT2=
EXTT3=
EXTT4=
EXTT5=
EXTT6=
EXTT7=
EXTT8=
EXTT9=
EXTT10=
EXTT11=
PLAYORDER=
